<svg id="visual" viewBox="0 0 900 600" width="900" height="600" xmlns="http://www.w3.org/2000/svg" xmlns:xlink="http://www.w3.org/1999/xlink" version="1.1"><rect width="900" height="600" fill="#8d99ae"></rect><g><g transform="translate(893 20)"><path d="M0 -94.6L81.9 -47.3L81.9 47.3L0 94.6L-81.9 47.3L-81.9 -47.3Z" fill="#2b2d41"></path></g><g transform="translate(445 258)"><path d="M0 -71L61.5 -35.5L61.5 35.5L0 71L-61.5 35.5L-61.5 -35.5Z" fill="#2b2d41"></path></g><g transform="translate(14 499)"><path d="M0 -77L66.7 -38.5L66.7 38.5L0 77L-66.7 38.5L-66.7 -38.5Z" fill="#2b2d41"></path></g><g transform="translate(239 26)"><path d="M0 -79L68.4 -39.5L68.4 39.5L0 79L-68.4 39.5L-68.4 -39.5Z" fill="#2b2d41"></path></g><g transform="translate(501 589)"><path d="M0 -81L70.1 -40.5L70.1 40.5L0 81L-70.1 40.5L-70.1 -40.5Z" fill="#2b2d41"></path></g><g transform="translate(58 152)"><path d="M0 -92L79.7 -46L79.7 46L0 92L-79.7 46L-79.7 -46Z" fill="#2b2d41"></path></g><g transform="translate(630 402)"><path d="M0 -79L68.4 -39.5L68.4 39.5L0 79L-68.4 39.5L-68.4 -39.5Z" fill="#2b2d41"></path></g><g transform="translate(191 345)"><path d="M0 -72L62.4 -36L62.4 36L0 72L-62.4 36L-62.4 -36Z" fill="#2b2d41"></path></g></g></svg>