<svg id="visual" viewBox="0 0 450 900" width="450" height="900" xmlns="http://www.w3.org/2000/svg" xmlns:xlink="http://www.w3.org/1999/xlink" version="1.1"><rect width="450" height="900" fill="#edf2f4"></rect><g><g transform="translate(302 189)"><path d="M0 -81.9L70.9 -41L70.9 41L0 81.9L-70.9 41L-70.9 -41Z" fill="none" stroke="#596076" stroke-width="4"></path></g><g transform="translate(402 10)"><path d="M0 -68L58.9 -34L58.9 34L0 68L-58.9 34L-58.9 -34Z" fill="none" stroke="#596076" stroke-width="4"></path></g><g transform="translate(65 344)"><path d="M0 -64L55.4 -32L55.4 32L0 64L-55.4 32L-55.4 -32Z" fill="none" stroke="#596076" stroke-width="4"></path></g><g transform="translate(104 881)"><path d="M0 -70L60.6 -35L60.6 35L0 70L-60.6 35L-60.6 -35Z" stroke="#596076" fill="none" stroke-width="4"></path></g><g transform="translate(175 617)"><path d="M0 -73L63.2 -36.5L63.2 36.5L0 73L-63.2 36.5L-63.2 -36.5Z" stroke="#596076" fill="none" stroke-width="4"></path></g></g></svg>