<svg id="visual" viewBox="0 0 900 600" width="900" height="600" xmlns="http://www.w3.org/2000/svg" xmlns:xlink="http://www.w3.org/1999/xlink" version="1.1"><rect width="900" height="600" fill="#edf2f4"></rect><g><g transform="translate(224 35)"><path d="M0 -94.6L81.9 -47.3L81.9 47.3L0 94.6L-81.9 47.3L-81.9 -47.3Z" fill="#596076"></path></g><g transform="translate(379 265)"><path d="M0 -80L69.3 -40L69.3 40L0 80L-69.3 40L-69.3 -40Z" fill="#596076"></path></g><g transform="translate(506 7)"><path d="M0 -78L67.5 -39L67.5 39L0 78L-67.5 39L-67.5 -39Z" fill="#596076"></path></g><g transform="translate(571 270)"><path d="M0 -90L77.9 -45L77.9 45L0 90L-77.9 45L-77.9 -45Z" fill="#596076"></path></g><g transform="translate(630 479)"><path d="M0 -80L69.3 -40L69.3 40L0 80L-69.3 40L-69.3 -40Z" fill="#596076"></path></g><g transform="translate(36 259)"><path d="M0 -91L78.8 -45.5L78.8 45.5L0 91L-78.8 45.5L-78.8 -45.5Z" fill="#596076"></path></g><g transform="translate(185 403)"><path d="M0 -92L79.7 -46L79.7 46L0 92L-79.7 46L-79.7 -46Z" fill="#596076"></path></g><g transform="translate(116 591)"><path d="M0 -86L74.5 -43L74.5 43L0 86L-74.5 43L-74.5 -43Z" fill="#596076"></path></g></g></svg>