<svg id="visual" viewBox="0 0 900 600" width="900" height="600" xmlns="http://www.w3.org/2000/svg" xmlns:xlink="http://www.w3.org/1999/xlink" version="1.1"><rect x="0" y="0" width="900" height="600" fill="#2b2d41"></rect><defs><linearGradient id="grad1_0" x1="33.3%" y1="0%" x2="100%" y2="100%"><stop offset="20%" stop-color="#8d99ae" stop-opacity="1"></stop><stop offset="80%" stop-color="#8d99ae" stop-opacity="1"></stop></linearGradient></defs><defs><linearGradient id="grad1_1" x1="33.3%" y1="0%" x2="100%" y2="100%"><stop offset="20%" stop-color="#8d99ae" stop-opacity="1"></stop><stop offset="80%" stop-color="#2b2d41" stop-opacity="1"></stop></linearGradient></defs><defs><linearGradient id="grad2_0" x1="0%" y1="0%" x2="66.7%" y2="100%"><stop offset="20%" stop-color="#8d99ae" stop-opacity="1"></stop><stop offset="80%" stop-color="#8d99ae" stop-opacity="1"></stop></linearGradient></defs><defs><linearGradient id="grad2_1" x1="0%" y1="0%" x2="66.7%" y2="100%"><stop offset="20%" stop-color="#2b2d41" stop-opacity="1"></stop><stop offset="80%" stop-color="#8d99ae" stop-opacity="1"></stop></linearGradient></defs><g transform="translate(900, 0)"><path d="M0 378.6C-29.4 363.8 -58.9 349 -92.1 343.9C-125.4 338.7 -162.5 343.2 -189.3 327.9C-216.1 312.5 -232.7 277.4 -245.4 245.4C-258 213.4 -266.6 184.5 -273.7 158C-280.7 131.5 -286.1 107.2 -303.3 81.3C-320.5 55.3 -349.5 27.7 -378.6 0L0 0Z" fill="#596076"></path><path d="M0 189.3C-14.7 181.9 -29.4 174.5 -46.1 171.9C-62.7 169.4 -81.2 171.6 -94.6 163.9C-108.1 156.3 -116.4 138.7 -122.7 122.7C-129 106.7 -133.3 92.3 -136.8 79C-140.3 65.7 -143 53.6 -151.7 40.6C-160.3 27.7 -174.8 13.8 -189.3 0L0 0Z" fill="#8d99ae"></path></g><g transform="translate(0, 600)"><path d="M0 -378.6C33.8 -377 67.6 -375.5 97.1 -362.2C126.5 -348.9 151.5 -323.9 173 -299.6C194.5 -275.4 212.3 -251.9 230.5 -230.5C248.7 -209.1 267.3 -189.7 292.7 -169C318.1 -148.3 350.2 -126.4 365.7 -98C381.1 -69.6 379.9 -34.8 378.6 0L0 0Z" fill="#596076"></path><path d="M0 -189.3C16.9 -188.5 33.8 -187.8 48.5 -181.1C63.2 -174.5 75.8 -161.9 86.5 -149.8C97.2 -137.7 106.1 -126 115.3 -115.3C124.4 -104.5 133.7 -94.8 146.4 -84.5C159 -74.2 175.1 -63.2 182.8 -49C190.6 -34.8 189.9 -17.4 189.3 0L0 0Z" fill="#8d99ae"></path></g></svg>