<svg id="visual" viewBox="0 0 675 900" width="675" height="900" xmlns="http://www.w3.org/2000/svg" xmlns:xlink="http://www.w3.org/1999/xlink" version="1.1"><rect x="0" y="0" width="675" height="900" fill="#edf2f4"></rect><defs><linearGradient id="grad1_0" x1="0%" y1="0%" x2="100%" y2="100%"><stop offset="30%" stop-color="#edf2f4" stop-opacity="1"></stop><stop offset="70%" stop-color="#edf2f4" stop-opacity="1"></stop></linearGradient></defs><defs><linearGradient id="grad2_0" x1="0%" y1="0%" x2="100%" y2="100%"><stop offset="30%" stop-color="#edf2f4" stop-opacity="1"></stop><stop offset="70%" stop-color="#edf2f4" stop-opacity="1"></stop></linearGradient></defs><g transform="translate(675, 0)"><path d="M0 337.5C-34.5 332.5 -69.1 327.5 -103.5 318.6C-138 309.7 -172.4 296.8 -198.4 273C-224.4 249.3 -242 214.6 -250 181.6C-257.9 148.7 -256.2 117.4 -269.1 87.5C-282.1 57.5 -309.8 28.7 -337.5 0L0 0Z" fill="#2b2d41"></path></g><g transform="translate(0, 900)"><path d="M0 -337.5C39.5 -340.5 79 -343.4 104.3 -321C129.6 -298.5 140.7 -250.7 163.4 -224.9C186.1 -199.1 220.4 -195.3 244.3 -177.5C268.3 -159.7 282 -128 295.8 -96.1C309.6 -64.2 323.5 -32.1 337.5 0L0 0Z" fill="#2b2d41"></path></g></svg>